<?xml version="1.0" encoding="UTF-8"?>
<svg width="52px" height="26px" viewBox="0 0 52 26" version="1.1" xmlns="http://www.w3.org/2000/svg" xmlns:xlink="http://www.w3.org/1999/xlink">
  <!-- Generator: Sketch 53.1 (72631) - https://sketchapp.com -->
  <title>Logo</title>
  <desc>Created with Sketch.</desc>
  <defs>
    <linearGradient x1="25.6781447%" y1="32.5534986%" x2="90.727044%" y2="68.2742199%" id="linearGradient-1">
      <stop stop-color="#494CDB" offset="21.24%"></stop>
      <stop stop-color="#4548D0" offset="34.69%"></stop>
      <stop stop-color="#3A3CB2" offset="58.5%"></stop>
      <stop stop-color="#282A82" offset="89.69%"></stop>
      <stop stop-color="#212370" offset="100%"></stop>
    </linearGradient>
    <linearGradient x1="71.6590318%" y1="56.7628407%" x2="15.3987717%" y2="31.0213598%" id="linearGradient-2">
      <stop stop-color="#00BCFF" offset="0%"></stop>
      <stop stop-color="#1C3E5E" offset="93.46%"></stop>
    </linearGradient>
    <linearGradient x1="24.7428447%" y1="73.1050808%" x2="92.6682373%" y2="17.9234413%" id="linearGradient-3">
      <stop stop-color="#75E078" offset="21.68%"></stop>
      <stop stop-color="#72DB75" offset="32.84%"></stop>
      <stop stop-color="#68CE6A" offset="45.42%"></stop>
      <stop stop-color="#57B759" offset="58.69%"></stop>
      <stop stop-color="#409841" offset="72.44%"></stop>
      <stop stop-color="#226F23" offset="86.42%"></stop>
      <stop stop-color="#004100" offset="100%"></stop>
    </linearGradient>
  </defs>
  <g id="Symbols" stroke="none" stroke-width="1" fill="none" fill-rule="evenodd">
    <g id="Header" transform="translate(0.000000, -7.000000)" fill-rule="nonzero">
      <g id="Logo">
        <g transform="translate(0.000000, 7.000000)">
          <g id="XMLID_16_">
            <path d="M41.839701,9.698 C41.5307309,10.218 41.1702658,10.79 40.7583056,11.336 C40.7583056,11.336 40.7583056,11.336 40.7583056,11.362 C40.217608,12.116 39.5996678,12.818 38.9817276,13.442 C38.904485,13.52 38.8272425,13.598 38.7757475,13.65 C38.698505,13.702 38.64701,13.78 38.5697674,13.832 C37.4111296,14.898 36.0980066,15.782 34.6561462,16.458 C33.6519934,16.952 32.570598,17.316 31.4377076,17.576 C30.3305648,17.836 29.1719269,17.966 27.9875415,17.966 C25.8504983,17.966 23.8164452,17.524 21.9626246,16.744 C24.6146179,15.626 26.9061462,13.806 28.5797342,11.492 C28.9144518,11.024 29.2234219,10.556 29.5066445,10.062 C28.4767442,8.268 27.1378738,6.708 25.5415282,5.46 C24.4601329,4.602 23.25,3.9 21.9626246,3.354 C20.8039867,2.86 19.5681063,2.522 18.2807309,2.314 C17.5083056,2.21 16.7358804,2.132 15.9377076,2.132 C13.4916944,2.132 11.1486711,2.704 9.08887043,3.718 C9.62956811,3.406 10.1702658,3.094 10.7109635,2.834 C14.1611296,1.118 18.0232558,0.156 22.0656146,0.156 C26.6229236,0.156 30.8712625,1.352 34.5789037,3.484 C35.0166113,3.744 35.4543189,4.004 35.8920266,4.29 C36.9734219,4.992 37.9775748,5.772 38.9302326,6.63 C39.4709302,7.098 40.6810631,8.242 41.839701,9.698 Z" id="XMLID_19_" fill="url(#linearGradient-1)"></path>
            <path d="M44.1054817,13.026 C39.7541528,20.644 31.6436877,25.792 22.3230897,25.87 C22.8122924,25.87 23.3272425,25.818 23.7906977,25.766 C23.1727575,25.818 22.5290698,25.87 21.9111296,25.87 C21.9111296,25.87 21.9111296,25.87 21.9111296,25.87 C21.8596346,25.87 21.833887,25.87 21.782392,25.87 C16.8388704,25.792 12.461794,23.4 9.65531561,19.734 C9.21760797,19.188 8.83139535,18.59 8.47093023,17.966 C8.75415282,17.472 9.06312292,16.978 9.39784053,16.536 C9.65531561,16.172 9.9127907,15.834 10.2217608,15.522 C11.6378738,13.858 13.4144518,12.506 15.39701,11.57 C17.070598,13.858 19.3363787,15.678 21.9626246,16.77 C23.8164452,17.55 25.8504983,17.992 27.9875415,17.992 C29.1719269,17.992 30.3305648,17.862 31.4377076,17.602 C32.570598,17.342 33.6262458,16.978 34.6561462,16.484 C36.0980066,15.808 37.4111296,14.924 38.5697674,13.858 C38.64701,13.806 38.698505,13.728 38.7757475,13.676 C38.85299,13.598 38.9302326,13.546 38.9817276,13.468 C39.6254153,12.844 40.217608,12.142 40.7583056,11.388 C40.7583056,11.388 40.7583056,11.388 40.7583056,11.362 C41.1702658,10.816 41.5307309,10.244 41.839701,9.724 C42.6893688,10.738 43.4360465,11.856 44.1054817,13.026 Z" id="XMLID_18_" fill="url(#linearGradient-2)"></path>
            <path d="M29.5581395,10.036 C29.2749169,10.53 28.9659468,11.024 28.6312292,11.466 C26.6486711,10.53 24.4343854,10.036 22.0913621,10.036 C19.7225914,10.036 17.4568106,10.582 15.448505,11.518 C13.4659468,12.454 11.6893688,13.806 10.2732558,15.47 C9.99003322,15.808 9.70681063,16.146 9.44933555,16.484 C9.11461794,16.952 8.80564784,17.42 8.52242525,17.914 C8.88289037,18.538 9.26910299,19.11 9.70681063,19.682 C12.513289,23.348 16.8903654,25.74 21.833887,25.818 C21.0872093,25.818 20.3662791,25.766 19.6453488,25.714 C11.2516611,24.908 4.06810631,19.994 0.0514950166,12.974 C0.643687708,11.934 1.31312292,10.946 2.05980066,9.984 C2.67774086,9.178 3.34717608,8.424 4.0423588,7.696 C5.56146179,6.136 7.28654485,4.784 9.16611296,3.666 C11.2259136,2.652 13.5689369,2.08 16.0149502,2.08 C16.8131229,2.08 17.5855482,2.132 18.3579734,2.262 C19.6453488,2.444 20.8812292,2.808 22.0398671,3.302 C23.3272425,3.848 24.5373754,4.55 25.6187708,5.408 C27.1636213,6.708 28.5282392,8.268 29.5581395,10.036 Z" id="XMLID_17_" fill="url(#linearGradient-3)"></path>
          </g>
        </g>
      </g>
    </g>
  </g>
</svg>